<?xml version="1.0" encoding="UTF-8" standalone="no"?><!DOCTYPE svg PUBLIC "-//W3C//DTD SVG 1.1//EN" "http://www.w3.org/Graphics/SVG/1.1/DTD/svg11.dtd"><!-- Generated by graphviz version 2.40.1 (20161225.0304)
 --><!-- Title: %0 Pages: 1 --><svg xmlns="http://www.w3.org/2000/svg" xmlns:xlink="http://www.w3.org/1999/xlink" width="1813pt" height="1124pt" viewBox="0.00 0.00 1812.72 1124.00">
<g id="graph0" class="graph" transform="scale(1 1) rotate(0) translate(4 1120)">
<title>%0</title>
<polygon fill="#ffffff" stroke="transparent" points="-4,4 -4,-1120 1808.7196,-1120 1808.7196,4 -4,4"/>
<!-- jx -->
<g id="node1" class="node">
<title>jx</title>
<ellipse fill="none" stroke="#000000" cx="228.2365" cy="-1098" rx="27" ry="18"/>
<text text-anchor="middle" x="228.2365" y="-1093.8" font-family="Times,serif" font-size="14.00" fill="#000000">%jx</text>
</g>
<!-- rt -->
<g id="node2" class="node">
<title>rt</title>
<ellipse fill="none" stroke="#000000" cx="173.2365" cy="-1026" rx="27" ry="18"/>
<text text-anchor="middle" x="173.2365" y="-1021.8" font-family="Times,serif" font-size="14.00" fill="#000000">%rt</text>
</g>
<!-- jx&#45;&gt;rt -->
<g id="edge1" class="edge">
<title>jx-&gt;rt</title>
<path fill="none" stroke="#000000" d="M215.7561,-1081.6621C208.724,-1072.4564 199.8018,-1060.7764 191.9482,-1050.4953"/>
<polygon fill="#000000" stroke="#000000" points="194.5192,-1048.0953 185.6674,-1042.2733 188.9565,-1052.3446 194.5192,-1048.0953"/>
</g>
<!-- rs -->
<g id="node3" class="node">
<title>rs</title>
<ellipse fill="none" stroke="#000000" cx="134.2365" cy="-594" rx="27" ry="18"/>
<text text-anchor="middle" x="134.2365" y="-589.8" font-family="Times,serif" font-size="14.00" fill="#000000">&amp;rs</text>
</g>
<!-- jx&#45;&gt;rs -->
<g id="edge2" class="edge">
<title>jx-&gt;rs</title>
<path fill="none" stroke="#000000" d="M228.2365,-1079.8146C228.2365,-1052.4983 228.2365,-999.25 228.2365,-954 228.2365,-954 228.2365,-954 228.2365,-738 228.2365,-687.2417 186.7768,-640.3903 158.9262,-614.644"/>
<polygon fill="#000000" stroke="#000000" points="161.2567,-612.0327 151.4775,-607.9561 156.5801,-617.2413 161.2567,-612.0327"/>
</g>
<!-- qq -->
<g id="node44" class="node">
<title>qq</title>
<ellipse fill="none" stroke="#000000" cx="133.2365" cy="-954" rx="28.9754" ry="18"/>
<text text-anchor="middle" x="133.2365" y="-949.8" font-family="Times,serif" font-size="14.00" fill="#000000">%qq</text>
</g>
<!-- rt&#45;&gt;qq -->
<g id="edge45" class="edge">
<title>rt-&gt;qq</title>
<path fill="none" stroke="#000000" d="M163.757,-1008.937C158.995,-1000.3654 153.1206,-989.7914 147.8012,-980.2165"/>
<polygon fill="#000000" stroke="#000000" points="150.8418,-978.4825 142.9257,-971.4407 144.7227,-981.882 150.8418,-978.4825"/>
</g>
<!-- rs&#45;&gt;rt -->
<g id="edge100" class="edge">
<title>rs-&gt;rt</title>
<path fill="none" stroke="#000000" d="M145.3003,-610.4752C161.6204,-636.4204 190.2365,-688.9123 190.2365,-738 190.2365,-882 190.2365,-882 190.2365,-882 190.2365,-922.4027 183.5546,-968.7448 178.5691,-997.6987"/>
<polygon fill="#000000" stroke="#000000" points="175.0608,-997.4377 176.7589,-1007.8955 181.953,-998.6613 175.0608,-997.4377"/>
</g>
<!-- sg -->
<g id="node30" class="node">
<title>sg</title>
<ellipse fill="none" stroke="#000000" cx="219.2365" cy="-522" rx="27.8286" ry="18"/>
<text text-anchor="middle" x="219.2365" y="-517.8" font-family="Times,serif" font-size="14.00" fill="#000000">%sg</text>
</g>
<!-- rs&#45;&gt;sg -->
<g id="edge95" class="edge">
<title>rs-&gt;sg</title>
<path fill="none" stroke="#000000" d="M147.3807,-578.0209C159.0393,-567.0771 176.129,-552.5139 190.8017,-540.9791"/>
<polygon fill="#000000" stroke="#000000" points="193.3141,-543.4619 199.1021,-534.5878 189.0435,-537.9156 193.3141,-543.4619"/>
</g>
<!-- dd -->
<g id="node39" class="node">
<title>dd</title>
<ellipse fill="none" stroke="#000000" cx="734.2365" cy="-522" rx="28.4127" ry="18"/>
<text text-anchor="middle" x="734.2365" y="-517.8" font-family="Times,serif" font-size="14.00" fill="#000000">&amp;dd</text>
</g>
<!-- rs&#45;&gt;dd -->
<g id="edge96" class="edge">
<title>rs-&gt;dd</title>
<path fill="none" stroke="#000000" d="M161.1828,-590.7664C257.3852,-579.2222 584.1396,-540.0116 696.174,-526.5675"/>
<polygon fill="#000000" stroke="#000000" points="696.819,-530.0153 706.3308,-525.3487 695.985,-523.0652 696.819,-530.0153"/>
</g>
<!-- nb -->
<g id="node40" class="node">
<title>nb</title>
<ellipse fill="none" stroke="#000000" cx="144.2365" cy="-378" rx="28.9754" ry="18"/>
<text text-anchor="middle" x="144.2365" y="-373.8" font-family="Times,serif" font-size="14.00" fill="#000000">%nb</text>
</g>
<!-- rs&#45;&gt;nb -->
<g id="edge99" class="edge">
<title>rs-&gt;nb</title>
<path fill="none" stroke="#000000" d="M135.0719,-575.9555C136.8108,-538.3938 140.8312,-451.5541 142.9212,-406.4103"/>
<polygon fill="#000000" stroke="#000000" points="146.4301,-406.2963 143.3964,-396.1451 139.4376,-405.9725 146.4301,-406.2963"/>
</g>
<!-- sl -->
<g id="node41" class="node">
<title>sl</title>
<ellipse fill="none" stroke="#000000" cx="124.2365" cy="-306" rx="27" ry="18"/>
<text text-anchor="middle" x="124.2365" y="-301.8" font-family="Times,serif" font-size="14.00" fill="#000000">%sl</text>
</g>
<!-- rs&#45;&gt;sl -->
<g id="edge97" class="edge">
<title>rs-&gt;sl</title>
<path fill="none" stroke="#000000" d="M128.7505,-576.3168C117.348,-537.187 93.1944,-440.3691 106.2365,-360 107.6928,-351.0258 110.4271,-341.5277 113.3327,-333.0413"/>
<polygon fill="#000000" stroke="#000000" points="116.6247,-334.2297 116.7561,-323.6357 110.0469,-331.8355 116.6247,-334.2297"/>
</g>
<!-- kx -->
<g id="node54" class="node">
<title>kx</title>
<ellipse fill="none" stroke="#000000" cx="124.2365" cy="-234" rx="28.9754" ry="18"/>
<text text-anchor="middle" x="124.2365" y="-229.8" font-family="Times,serif" font-size="14.00" fill="#000000">%kx</text>
</g>
<!-- rs&#45;&gt;kx -->
<g id="edge98" class="edge">
<title>rs-&gt;kx</title>
<path fill="none" stroke="#000000" d="M118.2486,-579.3079C93.6262,-554.9917 49.2365,-503.7063 49.2365,-450 49.2365,-450 49.2365,-450 49.2365,-378 49.2365,-331.2526 80.7125,-284.6397 102.8825,-257.6061"/>
<polygon fill="#000000" stroke="#000000" points="105.6406,-259.7647 109.4189,-249.8664 100.2926,-255.2481 105.6406,-259.7647"/>
</g>
<!-- cc -->
<g id="node4" class="node">
<title>cc</title>
<ellipse fill="none" stroke="#000000" cx="1525.2365" cy="-810" rx="27.2447" ry="18"/>
<text text-anchor="middle" x="1525.2365" y="-805.8" font-family="Times,serif" font-size="14.00" fill="#000000">&amp;cc</text>
</g>
<!-- cd -->
<g id="node5" class="node">
<title>cd</title>
<ellipse fill="none" stroke="#000000" cx="1525.2365" cy="-882" rx="28.3913" ry="18"/>
<text text-anchor="middle" x="1525.2365" y="-877.8" font-family="Times,serif" font-size="14.00" fill="#000000">%cd</text>
</g>
<!-- cc&#45;&gt;cd -->
<g id="edge3" class="edge">
<title>cc-&gt;cd</title>
<path fill="none" stroke="#000000" d="M1531.1315,-827.593C1531.9459,-835.5865 1532.1785,-845.2363 1531.8293,-854.1759"/>
<polygon fill="#000000" stroke="#000000" points="1528.334,-853.9891 1531.1522,-864.2022 1535.3181,-854.4608 1528.334,-853.9891"/>
</g>
<!-- fc -->
<g id="node6" class="node">
<title>fc</title>
<ellipse fill="none" stroke="#000000" cx="929.2365" cy="-594" rx="27" ry="18"/>
<text text-anchor="middle" x="929.2365" y="-589.8" font-family="Times,serif" font-size="14.00" fill="#000000">&amp;fc</text>
</g>
<!-- cc&#45;&gt;fc -->
<g id="edge4" class="edge">
<title>cc-&gt;fc</title>
<path fill="none" stroke="#000000" d="M1497.9757,-808.682C1395.8167,-803.5447 1039.3576,-783.7658 997.2365,-756 952.2694,-726.3582 936.9831,-660.5386 931.8263,-622.5482"/>
<polygon fill="#000000" stroke="#000000" points="935.2474,-621.6825 930.5764,-612.1729 928.2976,-622.5197 935.2474,-621.6825"/>
</g>
<!-- qr -->
<g id="node7" class="node">
<title>qr</title>
<ellipse fill="none" stroke="#000000" cx="1523.2365" cy="-522" rx="27.2467" ry="18"/>
<text text-anchor="middle" x="1523.2365" y="-517.8" font-family="Times,serif" font-size="14.00" fill="#000000">%qr</text>
</g>
<!-- cc&#45;&gt;qr -->
<g id="edge5" class="edge">
<title>cc-&gt;qr</title>
<path fill="none" stroke="#000000" d="M1525.1114,-791.9843C1524.7732,-743.2939 1523.8392,-608.7961 1523.4313,-550.0573"/>
<polygon fill="#000000" stroke="#000000" points="1526.931,-549.9843 1523.3615,-540.0089 1519.9312,-550.033 1526.931,-549.9843"/>
</g>
<!-- nl -->
<g id="node8" class="node">
<title>nl</title>
<ellipse fill="none" stroke="#000000" cx="1747.2365" cy="-738" rx="27" ry="18"/>
<text text-anchor="middle" x="1747.2365" y="-733.8" font-family="Times,serif" font-size="14.00" fill="#000000">%nl</text>
</g>
<!-- cc&#45;&gt;nl -->
<g id="edge6" class="edge">
<title>cc-&gt;nl</title>
<path fill="none" stroke="#000000" d="M1550.7417,-803.4608C1586.0819,-794.1589 1651.7492,-776.0014 1706.2365,-756 1709.3015,-754.8749 1712.4644,-753.6344 1715.6105,-752.3468"/>
<polygon fill="#000000" stroke="#000000" points="1717.0466,-755.5396 1724.8841,-748.4105 1714.3115,-749.096 1717.0466,-755.5396"/>
</g>
<!-- gk -->
<g id="node9" class="node">
<title>gk</title>
<ellipse fill="none" stroke="#000000" cx="1487.2365" cy="-450" rx="28.9754" ry="18"/>
<text text-anchor="middle" x="1487.2365" y="-445.8" font-family="Times,serif" font-size="14.00" fill="#000000">%gk</text>
</g>
<!-- cc&#45;&gt;gk -->
<g id="edge7" class="edge">
<title>cc-&gt;gk</title>
<path fill="none" stroke="#000000" d="M1513.9751,-793.5531C1497.3636,-767.6458 1468.2365,-715.2038 1468.2365,-666 1468.2365,-666 1468.2365,-666 1468.2365,-594 1468.2365,-553.5282 1475.7044,-507.2037 1481.2765,-478.2725"/>
<polygon fill="#000000" stroke="#000000" points="1484.7847,-478.5746 1483.2997,-468.0844 1477.9188,-477.2111 1484.7847,-478.5746"/>
</g>
<!-- zr -->
<g id="node10" class="node">
<title>zr</title>
<ellipse fill="none" stroke="#000000" cx="1467.2365" cy="-306" rx="27" ry="18"/>
<text text-anchor="middle" x="1467.2365" y="-301.8" font-family="Times,serif" font-size="14.00" fill="#000000">%zr</text>
</g>
<!-- cc&#45;&gt;zr -->
<g id="edge8" class="edge">
<title>cc-&gt;zr</title>
<path fill="none" stroke="#000000" d="M1503.2742,-799.1147C1465.4985,-778.6618 1392.2365,-730.6604 1392.2365,-666 1392.2365,-666 1392.2365,-666 1392.2365,-450 1392.2365,-402.9971 1424.0574,-356.1303 1446.2451,-329.1646"/>
<polygon fill="#000000" stroke="#000000" points="1448.9817,-331.349 1452.7757,-321.4568 1443.6409,-326.8239 1448.9817,-331.349"/>
</g>
<!-- cd&#45;&gt;cc -->
<g id="edge29" class="edge">
<title>cd-&gt;cc</title>
<path fill="none" stroke="#000000" d="M1519.3207,-864.2022C1518.5163,-856.1807 1518.2936,-846.5231 1518.6527,-837.5957"/>
<polygon fill="#000000" stroke="#000000" points="1522.1461,-837.8099 1519.3414,-827.593 1515.1627,-837.3289 1522.1461,-837.8099"/>
</g>
<!-- cd&#45;&gt;nl -->
<g id="edge30" class="edge">
<title>cd-&gt;nl</title>
<path fill="none" stroke="#000000" d="M1545.329,-868.967C1585.0537,-843.1996 1673.7174,-785.6881 1719.1782,-756.2"/>
<polygon fill="#000000" stroke="#000000" points="1721.1821,-759.072 1727.667,-750.6937 1717.3727,-753.1993 1721.1821,-759.072"/>
</g>
<!-- dn -->
<g id="node31" class="node">
<title>dn</title>
<ellipse fill="none" stroke="#000000" cx="894.2365" cy="-450" rx="28.4127" ry="18"/>
<text text-anchor="middle" x="894.2365" y="-445.8" font-family="Times,serif" font-size="14.00" fill="#000000">&amp;dn</text>
</g>
<!-- fc&#45;&gt;dn -->
<g id="edge88" class="edge">
<title>fc-&gt;dn</title>
<path fill="none" stroke="#000000" d="M924.8745,-576.0535C918.9011,-551.4774 908.1151,-507.1008 901.0657,-478.0974"/>
<polygon fill="#000000" stroke="#000000" points="904.4163,-477.0632 898.6534,-468.1727 897.6143,-478.7165 904.4163,-477.0632"/>
</g>
<!-- qr&#45;&gt;gk -->
<g id="edge59" class="edge">
<title>qr-&gt;gk</title>
<path fill="none" stroke="#000000" d="M1514.5219,-504.5708C1510.2768,-496.0807 1505.0829,-485.6929 1500.3702,-476.2674"/>
<polygon fill="#000000" stroke="#000000" points="1503.4735,-474.6477 1495.8708,-467.2687 1497.2125,-477.7782 1503.4735,-474.6477"/>
</g>
<!-- pj -->
<g id="node46" class="node">
<title>pj</title>
<ellipse fill="none" stroke="#000000" cx="1599.2365" cy="-666" rx="27" ry="18"/>
<text text-anchor="middle" x="1599.2365" y="-661.8" font-family="Times,serif" font-size="14.00" fill="#000000">%pj</text>
</g>
<!-- nl&#45;&gt;pj -->
<g id="edge108" class="edge">
<title>nl-&gt;pj</title>
<path fill="none" stroke="#000000" d="M1725.3986,-727.3762C1700.2586,-715.1459 1658.7764,-694.9654 1630.2856,-681.105"/>
<polygon fill="#000000" stroke="#000000" points="1631.6875,-677.8948 1621.164,-676.6674 1628.6252,-684.1895 1631.6875,-677.8948"/>
</g>
<!-- ln -->
<g id="node57" class="node">
<title>ln</title>
<ellipse fill="none" stroke="#000000" cx="1467.2365" cy="-378" rx="27" ry="18"/>
<text text-anchor="middle" x="1467.2365" y="-373.8" font-family="Times,serif" font-size="14.00" fill="#000000">%ln</text>
</g>
<!-- gk&#45;&gt;ln -->
<g id="edge77" class="edge">
<title>gk-&gt;ln</title>
<path fill="none" stroke="#000000" d="M1482.2926,-432.2022C1480.057,-424.1541 1477.3639,-414.4588 1474.8772,-405.5067"/>
<polygon fill="#000000" stroke="#000000" points="1478.2416,-404.541 1472.1927,-395.8425 1471.4969,-406.4145 1478.2416,-404.541"/>
</g>
<!-- cq -->
<g id="node13" class="node">
<title>cq</title>
<ellipse fill="none" stroke="#000000" cx="1542.2365" cy="-234" rx="28.3913" ry="18"/>
<text text-anchor="middle" x="1542.2365" y="-229.8" font-family="Times,serif" font-size="14.00" fill="#000000">%cq</text>
</g>
<!-- zr&#45;&gt;cq -->
<g id="edge11" class="edge">
<title>zr-&gt;cq</title>
<path fill="none" stroke="#000000" d="M1482.7765,-291.0816C1493.2651,-281.0125 1507.2924,-267.5463 1519.0884,-256.2221"/>
<polygon fill="#000000" stroke="#000000" points="1521.6683,-258.5973 1526.4583,-249.147 1516.8205,-253.5475 1521.6683,-258.5973"/>
</g>
<!-- qs -->
<g id="node11" class="node">
<title>qs</title>
<ellipse fill="none" stroke="#000000" cx="38.2365" cy="-810" rx="27.8286" ry="18"/>
<text text-anchor="middle" x="38.2365" y="-805.8" font-family="Times,serif" font-size="14.00" fill="#000000">%qs</text>
</g>
<!-- qs&#45;&gt;rs -->
<g id="edge10" class="edge">
<title>qs-&gt;rs</title>
<path fill="none" stroke="#000000" d="M24.1135,-794.2844C15.983,-784.1468 6.5464,-770.2347 2.2365,-756 -5.0953,-731.7849 10.4434,-649.0635 11.2365,-648 31.7855,-620.4426 69.4479,-606.717 97.7044,-600.0309"/>
<polygon fill="#000000" stroke="#000000" points="98.6104,-603.4159 107.64,-597.8736 97.125,-596.5753 98.6104,-603.4159"/>
</g>
<!-- cl -->
<g id="node12" class="node">
<title>cl</title>
<ellipse fill="none" stroke="#000000" cx="38.2365" cy="-738" rx="27" ry="18"/>
<text text-anchor="middle" x="38.2365" y="-733.8" font-family="Times,serif" font-size="14.00" fill="#000000">%cl</text>
</g>
<!-- qs&#45;&gt;cl -->
<g id="edge9" class="edge">
<title>qs-&gt;cl</title>
<path fill="none" stroke="#000000" d="M38.2365,-791.8314C38.2365,-784.131 38.2365,-774.9743 38.2365,-766.4166"/>
<polygon fill="#000000" stroke="#000000" points="41.7366,-766.4132 38.2365,-756.4133 34.7366,-766.4133 41.7366,-766.4132"/>
</g>
<!-- cl&#45;&gt;rs -->
<g id="edge65" class="edge">
<title>cl-&gt;rs</title>
<path fill="none" stroke="#000000" d="M28.366,-721.0752C18.6239,-701.919 7.0745,-670.4636 21.2365,-648 37.9224,-621.5329 71.5534,-607.7584 97.8076,-600.77"/>
<polygon fill="#000000" stroke="#000000" points="98.9285,-604.0994 107.816,-598.3319 97.2717,-597.2983 98.9285,-604.0994"/>
</g>
<!-- zx -->
<g id="node52" class="node">
<title>zx</title>
<ellipse fill="none" stroke="#000000" cx="58.2365" cy="-666" rx="28.3913" ry="18"/>
<text text-anchor="middle" x="58.2365" y="-661.8" font-family="Times,serif" font-size="14.00" fill="#000000">%zx</text>
</g>
<!-- cl&#45;&gt;zx -->
<g id="edge64" class="edge">
<title>cl-&gt;zx</title>
<path fill="none" stroke="#000000" d="M43.1803,-720.2022C45.4159,-712.1541 48.109,-702.4588 50.5957,-693.5067"/>
<polygon fill="#000000" stroke="#000000" points="53.976,-694.4145 53.2802,-683.8425 47.2314,-692.541 53.976,-694.4145"/>
</g>
<!-- cq&#45;&gt;cc -->
<g id="edge58" class="edge">
<title>cq-&gt;cc</title>
<path fill="none" stroke="#000000" d="M1562.2598,-246.8366C1594.475,-269.2374 1654.2365,-318.7742 1654.2365,-378 1654.2365,-666 1654.2365,-666 1654.2365,-666 1654.2365,-724.884 1593.6543,-770.6888 1555.5233,-793.687"/>
<polygon fill="#000000" stroke="#000000" points="1553.6925,-790.703 1546.8282,-798.7734 1557.2271,-796.7451 1553.6925,-790.703"/>
</g>
<!-- cj -->
<g id="node18" class="node">
<title>cj</title>
<ellipse fill="none" stroke="#000000" cx="1542.2365" cy="-162" rx="27" ry="18"/>
<text text-anchor="middle" x="1542.2365" y="-157.8" font-family="Times,serif" font-size="14.00" fill="#000000">%cj</text>
</g>
<!-- cq&#45;&gt;cj -->
<g id="edge57" class="edge">
<title>cq-&gt;cj</title>
<path fill="none" stroke="#000000" d="M1542.2365,-215.8314C1542.2365,-208.131 1542.2365,-198.9743 1542.2365,-190.4166"/>
<polygon fill="#000000" stroke="#000000" points="1545.7366,-190.4132 1542.2365,-180.4133 1538.7366,-190.4133 1545.7366,-190.4132"/>
</g>
<!-- mx -->
<g id="node14" class="node">
<title>mx</title>
<ellipse fill="none" stroke="#000000" cx="1240.2365" cy="-162" rx="31.341" ry="18"/>
<text text-anchor="middle" x="1240.2365" y="-157.8" font-family="Times,serif" font-size="14.00" fill="#000000">%mx</text>
</g>
<!-- nr -->
<g id="node15" class="node">
<title>nr</title>
<ellipse fill="none" stroke="#000000" cx="1240.2365" cy="-90" rx="27.2467" ry="18"/>
<text text-anchor="middle" x="1240.2365" y="-85.8" font-family="Times,serif" font-size="14.00" fill="#000000">%nr</text>
</g>
<!-- mx&#45;&gt;nr -->
<g id="edge12" class="edge">
<title>mx-&gt;nr</title>
<path fill="none" stroke="#000000" d="M1240.2365,-143.8314C1240.2365,-136.131 1240.2365,-126.9743 1240.2365,-118.4166"/>
<polygon fill="#000000" stroke="#000000" points="1243.7366,-118.4132 1240.2365,-108.4133 1236.7366,-118.4133 1243.7366,-118.4132"/>
</g>
<!-- pm -->
<g id="node16" class="node">
<title>pm</title>
<ellipse fill="none" stroke="#000000" cx="1130.2365" cy="-594" rx="30.7789" ry="18"/>
<text text-anchor="middle" x="1130.2365" y="-589.8" font-family="Times,serif" font-size="14.00" fill="#000000">&amp;pm</text>
</g>
<!-- mx&#45;&gt;pm -->
<g id="edge13" class="edge">
<title>mx-&gt;pm</title>
<path fill="none" stroke="#000000" d="M1248.1101,-179.7865C1259.2405,-206.5941 1278.2365,-259.201 1278.2365,-306 1278.2365,-450 1278.2365,-450 1278.2365,-450 1278.2365,-513.1243 1208.2197,-557.5376 1164.503,-579.116"/>
<polygon fill="#000000" stroke="#000000" points="1162.8549,-576.0245 1155.3427,-583.4956 1165.8743,-582.3398 1162.8549,-576.0245"/>
</g>
<!-- nr&#45;&gt;pm -->
<g id="edge102" class="edge">
<title>nr-&gt;pm</title>
<path fill="none" stroke="#000000" d="M1214.882,-96.5144C1163.566,-111.3936 1052.2365,-153.007 1052.2365,-234 1052.2365,-378 1052.2365,-378 1052.2365,-378 1052.2365,-450.3456 1091.4236,-528.6521 1114.2461,-568.123"/>
<polygon fill="#000000" stroke="#000000" points="1111.2953,-570.0095 1119.3909,-576.8441 1117.3244,-566.4527 1111.2953,-570.0095"/>
</g>
<!-- vf -->
<g id="node59" class="node">
<title>vf</title>
<ellipse fill="none" stroke="#000000" cx="1278.2365" cy="-18" rx="27.2467" ry="18"/>
<text text-anchor="middle" x="1278.2365" y="-13.8" font-family="Times,serif" font-size="14.00" fill="#000000">%vf</text>
</g>
<!-- nr&#45;&gt;vf -->
<g id="edge101" class="edge">
<title>nr-&gt;vf</title>
<path fill="none" stroke="#000000" d="M1249.2419,-72.937C1253.7192,-64.4537 1259.2316,-54.0092 1264.2435,-44.513"/>
<polygon fill="#000000" stroke="#000000" points="1267.4594,-45.9182 1269.0317,-35.4407 1261.2687,-42.6509 1267.4594,-45.9182"/>
</g>
<!-- jv -->
<g id="node20" class="node">
<title>jv</title>
<ellipse fill="none" stroke="#000000" cx="959.2365" cy="-522" rx="27" ry="18"/>
<text text-anchor="middle" x="959.2365" y="-517.8" font-family="Times,serif" font-size="14.00" fill="#000000">%jv</text>
</g>
<!-- pm&#45;&gt;jv -->
<g id="edge42" class="edge">
<title>pm-&gt;jv</title>
<path fill="none" stroke="#000000" d="M1104.0875,-584.2808C1076.6931,-573.9269 1032.5412,-556.7523 995.2365,-540 993.4676,-539.2056 991.6591,-538.372 989.8405,-537.5169"/>
<polygon fill="#000000" stroke="#000000" points="991.3253,-534.3472 980.7988,-533.1455 988.2783,-540.6493 991.3253,-534.3472"/>
</g>
<!-- sp -->
<g id="node21" class="node">
<title>sp</title>
<ellipse fill="none" stroke="#000000" cx="1108.2365" cy="-450" rx="27.8286" ry="18"/>
<text text-anchor="middle" x="1108.2365" y="-445.8" font-family="Times,serif" font-size="14.00" fill="#000000">%sp</text>
</g>
<!-- pm&#45;&gt;sp -->
<g id="edge43" class="edge">
<title>pm-&gt;sp</title>
<path fill="none" stroke="#000000" d="M1127.4946,-576.0535C1123.74,-551.4774 1116.9602,-507.1008 1112.5291,-478.0974"/>
<polygon fill="#000000" stroke="#000000" points="1115.9831,-477.5294 1111.0129,-468.1727 1109.0633,-478.5866 1115.9831,-477.5294"/>
</g>
<!-- kt -->
<g id="node25" class="node">
<title>kt</title>
<ellipse fill="none" stroke="#000000" cx="1185.2365" cy="-306" rx="27" ry="18"/>
<text text-anchor="middle" x="1185.2365" y="-301.8" font-family="Times,serif" font-size="14.00" fill="#000000">%kt</text>
</g>
<!-- pm&#45;&gt;kt -->
<g id="edge39" class="edge">
<title>pm-&gt;kt</title>
<path fill="none" stroke="#000000" d="M1138.808,-576.3337C1143.5818,-565.945 1149.3318,-552.445 1153.2365,-540 1172.8071,-477.624 1175.8125,-460.9512 1183.2365,-396 1185.5845,-375.4579 1186.0398,-352.1123 1185.9316,-334.3465"/>
<polygon fill="#000000" stroke="#000000" points="1189.4313,-334.2941 1185.8081,-324.3381 1182.4319,-334.3806 1189.4313,-334.2941"/>
</g>
<!-- xg -->
<g id="node29" class="node">
<title>xg</title>
<ellipse fill="none" stroke="#000000" cx="1103.2365" cy="-882" rx="28.9754" ry="18"/>
<text text-anchor="middle" x="1103.2365" y="-877.8" font-family="Times,serif" font-size="14.00" fill="#000000">%xg</text>
</g>
<!-- pm&#45;&gt;xg -->
<g id="edge40" class="edge">
<title>pm-&gt;xg</title>
<path fill="none" stroke="#000000" d="M1132.0342,-612.0089C1131.567,-660.6912 1119.1981,-795.1886 1110.0743,-853.9345"/>
<polygon fill="#000000" stroke="#000000" points="1106.5909,-853.5472 1108.4121,-863.9843 1113.4971,-854.6895 1106.5909,-853.5472"/>
</g>
<!-- xp -->
<g id="node42" class="node">
<title>xp</title>
<ellipse fill="none" stroke="#000000" cx="1032.2365" cy="-522" rx="28.4127" ry="18"/>
<text text-anchor="middle" x="1032.2365" y="-517.8" font-family="Times,serif" font-size="14.00" fill="#000000">&amp;xp</text>
</g>
<!-- pm&#45;&gt;xp -->
<g id="edge41" class="edge">
<title>pm-&gt;xp</title>
<path fill="none" stroke="#000000" d="M1110.8748,-579.7751C1096.0543,-568.8866 1075.4395,-553.741 1059.0348,-541.6886"/>
<polygon fill="#000000" stroke="#000000" points="1061.0241,-538.807 1050.893,-535.7068 1056.8795,-544.4482 1061.0241,-538.807"/>
</g>
<!-- mj -->
<g id="node17" class="node">
<title>mj</title>
<ellipse fill="none" stroke="#000000" cx="1563.2365" cy="-594" rx="29.0529" ry="18"/>
<text text-anchor="middle" x="1563.2365" y="-589.8" font-family="Times,serif" font-size="14.00" fill="#000000">%mj</text>
</g>
<!-- mj&#45;&gt;cc -->
<g id="edge15" class="edge">
<title>mj-&gt;cc</title>
<path fill="none" stroke="#000000" d="M1560.0443,-612.1451C1553.4068,-649.8741 1538.0776,-737.0083 1530.1632,-781.9956"/>
<polygon fill="#000000" stroke="#000000" points="1526.6966,-781.5003 1528.411,-791.9555 1533.5908,-782.7132 1526.6966,-781.5003"/>
</g>
<!-- mj&#45;&gt;qr -->
<g id="edge14" class="edge">
<title>mj-&gt;qr</title>
<path fill="none" stroke="#000000" d="M1553.757,-576.937C1548.925,-568.2393 1542.9475,-557.4799 1537.5669,-547.7948"/>
<polygon fill="#000000" stroke="#000000" points="1540.5639,-545.9823 1532.6479,-538.9405 1534.4448,-549.3819 1540.5639,-545.9823"/>
</g>
<!-- cj&#45;&gt;cc -->
<g id="edge16" class="edge">
<title>cj-&gt;cc</title>
<path fill="none" stroke="#000000" d="M1516.882,-168.5144C1465.566,-183.3936 1354.2365,-225.007 1354.2365,-306 1354.2365,-666 1354.2365,-666 1354.2365,-666 1354.2365,-712.4205 1372.7655,-724.9095 1407.2365,-756 1431.015,-777.4467 1464.7636,-791.7244 1490.0814,-800.1827"/>
<polygon fill="#000000" stroke="#000000" points="1489.0843,-803.5383 1499.6751,-803.2465 1491.2139,-796.8701 1489.0843,-803.5383"/>
</g>
<!-- nt -->
<g id="node19" class="node">
<title>nt</title>
<ellipse fill="none" stroke="#000000" cx="1692.2365" cy="-90" rx="27" ry="18"/>
<text text-anchor="middle" x="1692.2365" y="-85.8" font-family="Times,serif" font-size="14.00" fill="#000000">%nt</text>
</g>
<!-- cj&#45;&gt;nt -->
<g id="edge17" class="edge">
<title>cj-&gt;nt</title>
<path fill="none" stroke="#000000" d="M1564.3695,-151.3762C1589.8491,-139.1459 1631.892,-118.9654 1660.7677,-105.105"/>
<polygon fill="#000000" stroke="#000000" points="1662.512,-108.1501 1670.0126,-100.6674 1659.4828,-101.8395 1662.512,-108.1501"/>
</g>
<!-- nt&#45;&gt;cc -->
<g id="edge74" class="edge">
<title>nt-&gt;cc</title>
<path fill="none" stroke="#000000" d="M1692.2365,-108.1854C1692.2365,-135.5017 1692.2365,-188.75 1692.2365,-234 1692.2365,-666 1692.2365,-666 1692.2365,-666 1692.2365,-735.6614 1607.8628,-779.046 1559.0605,-798.3136"/>
<polygon fill="#000000" stroke="#000000" points="1557.6155,-795.1187 1549.5197,-801.9531 1560.1105,-801.659 1557.6155,-795.1187"/>
</g>
<!-- mn -->
<g id="node55" class="node">
<title>mn</title>
<ellipse fill="none" stroke="#000000" cx="1747.2365" cy="-18" rx="31.341" ry="18"/>
<text text-anchor="middle" x="1747.2365" y="-13.8" font-family="Times,serif" font-size="14.00" fill="#000000">%mn</text>
</g>
<!-- nt&#45;&gt;mn -->
<g id="edge73" class="edge">
<title>nt-&gt;mn</title>
<path fill="none" stroke="#000000" d="M1704.7168,-73.6621C1711.6499,-64.5861 1720.4202,-53.1049 1728.1923,-42.9306"/>
<polygon fill="#000000" stroke="#000000" points="1731.1347,-44.8443 1734.4238,-34.7729 1725.572,-40.595 1731.1347,-44.8443"/>
</g>
<!-- jv&#45;&gt;sp -->
<g id="edge18" class="edge">
<title>jv-&gt;sp</title>
<path fill="none" stroke="#000000" d="M980.9074,-511.0863C985.6231,-508.7333 990.591,-506.2711 995.2365,-504 1022.5835,-490.6303 1053.8149,-475.7338 1076.5034,-464.979"/>
<polygon fill="#000000" stroke="#000000" points="1078.1274,-468.0826 1085.6677,-460.6398 1075.1318,-461.7559 1078.1274,-468.0826"/>
</g>
<!-- pc -->
<g id="node58" class="node">
<title>pc</title>
<ellipse fill="none" stroke="#000000" cx="1146.2365" cy="-378" rx="28.3913" ry="18"/>
<text text-anchor="middle" x="1146.2365" y="-373.8" font-family="Times,serif" font-size="14.00" fill="#000000">%pc</text>
</g>
<!-- sp&#45;&gt;pc -->
<g id="edge84" class="edge">
<title>sp-&gt;pc</title>
<path fill="none" stroke="#000000" d="M1117.2419,-432.937C1121.7192,-424.4537 1127.2316,-414.0092 1132.2435,-404.513"/>
<polygon fill="#000000" stroke="#000000" points="1135.4594,-405.9182 1137.0317,-395.4407 1129.2687,-402.6509 1135.4594,-405.9182"/>
</g>
<!-- dj -->
<g id="node22" class="node">
<title>dj</title>
<ellipse fill="none" stroke="#000000" cx="623.2365" cy="-306" rx="27" ry="18"/>
<text text-anchor="middle" x="623.2365" y="-301.8" font-family="Times,serif" font-size="14.00" fill="#000000">%dj</text>
</g>
<!-- bd -->
<g id="node23" class="node">
<title>bd</title>
<ellipse fill="none" stroke="#000000" cx="602.2365" cy="-738" rx="28.4127" ry="18"/>
<text text-anchor="middle" x="602.2365" y="-733.8" font-family="Times,serif" font-size="14.00" fill="#000000">&amp;bd</text>
</g>
<!-- dj&#45;&gt;bd -->
<g id="edge19" class="edge">
<title>dj-&gt;bd</title>
<path fill="none" stroke="#000000" d="M626.7589,-324.1045C631.7383,-351.3176 640.2365,-404.4358 640.2365,-450 640.2365,-594 640.2365,-594 640.2365,-594 640.2365,-636.0945 624.8678,-682.8878 613.678,-711.3788"/>
<polygon fill="#000000" stroke="#000000" points="610.4309,-710.0726 609.9263,-720.6554 616.9203,-712.6971 610.4309,-710.0726"/>
</g>
<!-- zc -->
<g id="node24" class="node">
<title>zc</title>
<ellipse fill="none" stroke="#000000" cx="651.2365" cy="-234" rx="27.8073" ry="18"/>
<text text-anchor="middle" x="651.2365" y="-229.8" font-family="Times,serif" font-size="14.00" fill="#000000">%zc</text>
</g>
<!-- dj&#45;&gt;zc -->
<g id="edge20" class="edge">
<title>dj-&gt;zc</title>
<path fill="none" stroke="#000000" d="M630.0145,-288.5708C633.2237,-280.3187 637.13,-270.2738 640.7122,-261.0623"/>
<polygon fill="#000000" stroke="#000000" points="644.0613,-262.1069 644.4238,-251.5182 637.5373,-259.5697 644.0613,-262.1069"/>
</g>
<!-- gz -->
<g id="node28" class="node">
<title>gz</title>
<ellipse fill="none" stroke="#000000" cx="602.2365" cy="-882" rx="28.3913" ry="18"/>
<text text-anchor="middle" x="602.2365" y="-877.8" font-family="Times,serif" font-size="14.00" fill="#000000">%gz</text>
</g>
<!-- bd&#45;&gt;gz -->
<g id="edge79" class="edge">
<title>bd-&gt;gz</title>
<path fill="none" stroke="#000000" d="M606.9031,-756.1727C609.373,-780.7613 609.6468,-824.8705 607.7245,-853.7871"/>
<polygon fill="#000000" stroke="#000000" points="604.2117,-853.8002 606.8803,-864.0535 611.1882,-854.374 604.2117,-853.8002"/>
</g>
<!-- gm -->
<g id="node38" class="node">
<title>gm</title>
<ellipse fill="none" stroke="#000000" cx="581.2365" cy="-378" rx="31.341" ry="18"/>
<text text-anchor="middle" x="581.2365" y="-373.8" font-family="Times,serif" font-size="14.00" fill="#000000">%gm</text>
</g>
<!-- bd&#45;&gt;gm -->
<g id="edge78" class="edge">
<title>bd-&gt;gm</title>
<path fill="none" stroke="#000000" d="M602.2365,-719.8146C602.2365,-692.4983 602.2365,-639.25 602.2365,-594 602.2365,-594 602.2365,-594 602.2365,-522 602.2365,-481.2729 593.9095,-434.7384 587.7426,-405.8595"/>
<polygon fill="#000000" stroke="#000000" points="591.1542,-405.0768 585.5877,-396.0621 584.3176,-406.5806 591.1542,-405.0768"/>
</g>
<!-- fh -->
<g id="node43" class="node">
<title>fh</title>
<ellipse fill="none" stroke="#000000" cx="883.2365" cy="-666" rx="27" ry="18"/>
<text text-anchor="middle" x="883.2365" y="-661.8" font-family="Times,serif" font-size="14.00" fill="#000000">&amp;fh</text>
</g>
<!-- bd&#45;&gt;fh -->
<g id="edge80" class="edge">
<title>bd-&gt;fh</title>
<path fill="none" stroke="#000000" d="M629.6921,-733.5969C674.7683,-725.9758 766.9723,-708.7333 842.2365,-684 845.3383,-682.9807 848.5259,-681.8113 851.6877,-680.5686"/>
<polygon fill="#000000" stroke="#000000" points="853.098,-683.7727 860.9838,-676.697 850.4067,-677.3107 853.098,-683.7727"/>
</g>
<!-- sv -->
<g id="node51" class="node">
<title>sv</title>
<ellipse fill="none" stroke="#000000" cx="360.2365" cy="-666" rx="27.8286" ry="18"/>
<text text-anchor="middle" x="360.2365" y="-661.8" font-family="Times,serif" font-size="14.00" fill="#000000">%sv</text>
</g>
<!-- bd&#45;&gt;sv -->
<g id="edge81" class="edge">
<title>bd-&gt;sv</title>
<path fill="none" stroke="#000000" d="M575.345,-732.0158C536.6015,-723.1079 463.0509,-705.1232 402.2365,-684 399.089,-682.9068 395.8438,-681.6878 392.6177,-680.4137"/>
<polygon fill="#000000" stroke="#000000" points="393.6925,-677.0711 383.1133,-676.4968 391.0253,-683.5431 393.6925,-677.0711"/>
</g>
<!-- zc&#45;&gt;bd -->
<g id="edge32" class="edge">
<title>zc-&gt;bd</title>
<path fill="none" stroke="#000000" d="M656.8309,-251.9823C664.7394,-279.0397 678.2365,-331.9615 678.2365,-378 678.2365,-594 678.2365,-594 678.2365,-594 678.2365,-641.1373 645.9913,-687.9634 623.5078,-714.8844"/>
<polygon fill="#000000" stroke="#000000" points="620.7574,-712.7146 616.89,-722.5784 626.0645,-717.2793 620.7574,-712.7146"/>
</g>
<!-- jq -->
<g id="node35" class="node">
<title>jq</title>
<ellipse fill="none" stroke="#000000" cx="651.2365" cy="-162" rx="27" ry="18"/>
<text text-anchor="middle" x="651.2365" y="-157.8" font-family="Times,serif" font-size="14.00" fill="#000000">%jq</text>
</g>
<!-- zc&#45;&gt;jq -->
<g id="edge31" class="edge">
<title>zc-&gt;jq</title>
<path fill="none" stroke="#000000" d="M651.2365,-215.8314C651.2365,-208.131 651.2365,-198.9743 651.2365,-190.4166"/>
<polygon fill="#000000" stroke="#000000" points="654.7366,-190.4132 651.2365,-180.4133 647.7366,-190.4133 654.7366,-190.4132"/>
</g>
<!-- lt -->
<g id="node26" class="node">
<title>lt</title>
<ellipse fill="none" stroke="#000000" cx="1223.2365" cy="-234" rx="27" ry="18"/>
<text text-anchor="middle" x="1223.2365" y="-229.8" font-family="Times,serif" font-size="14.00" fill="#000000">%lt</text>
</g>
<!-- kt&#45;&gt;lt -->
<g id="edge21" class="edge">
<title>kt-&gt;lt</title>
<path fill="none" stroke="#000000" d="M1194.2419,-288.937C1198.7192,-280.4537 1204.2316,-270.0092 1209.2435,-260.513"/>
<polygon fill="#000000" stroke="#000000" points="1212.4594,-261.9182 1214.0317,-251.4407 1206.2687,-258.6509 1212.4594,-261.9182"/>
</g>
<!-- lt&#45;&gt;mx -->
<g id="edge106" class="edge">
<title>lt-&gt;mx</title>
<path fill="none" stroke="#000000" d="M1227.4387,-216.2022C1229.3185,-208.2406 1231.579,-198.6671 1233.6736,-189.7957"/>
<polygon fill="#000000" stroke="#000000" points="1237.132,-190.3792 1236.0236,-179.8425 1230.3193,-188.7706 1237.132,-190.3792"/>
</g>
<!-- lt&#45;&gt;pm -->
<g id="edge105" class="edge">
<title>lt-&gt;pm</title>
<path fill="none" stroke="#000000" d="M1226.7589,-252.1045C1231.7383,-279.3176 1240.2365,-332.4358 1240.2365,-378 1240.2365,-450 1240.2365,-450 1240.2365,-450 1240.2365,-503.426 1191.829,-549.3387 1159.2388,-574.1953"/>
<polygon fill="#000000" stroke="#000000" points="1156.8841,-571.5836 1150.9266,-580.3449 1161.0474,-577.211 1156.8841,-571.5836"/>
</g>
<!-- broadcaster -->
<g id="node27" class="node">
<title>broadcaster</title>
<ellipse fill="none" stroke="#000000" cx="836.2365" cy="-954" rx="55.5753" ry="18"/>
<text text-anchor="middle" x="836.2365" y="-949.8" font-family="Times,serif" font-size="14.00" fill="#000000">broadcaster</text>
</g>
<!-- broadcaster&#45;&gt;cd -->
<g id="edge24" class="edge">
<title>broadcaster-&gt;cd</title>
<path fill="none" stroke="#000000" d="M889.1571,-948.4698C1022.6927,-934.5155 1370.9251,-898.1254 1486.9768,-885.9981"/>
<polygon fill="#000000" stroke="#000000" points="1487.5712,-889.4551 1497.1532,-884.9347 1486.8436,-882.4931 1487.5712,-889.4551"/>
</g>
<!-- broadcaster&#45;&gt;gz -->
<g id="edge22" class="edge">
<title>broadcaster-&gt;gz</title>
<path fill="none" stroke="#000000" d="M795.7439,-941.5408C751.0581,-927.7913 679.8578,-905.8835 637.4176,-892.825"/>
<polygon fill="#000000" stroke="#000000" points="638.3806,-889.4594 627.7935,-889.8637 636.3219,-896.1498 638.3806,-889.4594"/>
</g>
<!-- broadcaster&#45;&gt;xg -->
<g id="edge23" class="edge">
<title>broadcaster-&gt;xg</title>
<path fill="none" stroke="#000000" d="M879.1346,-942.432C931.1559,-928.4037 1017.9299,-905.004 1066.8358,-891.8159"/>
<polygon fill="#000000" stroke="#000000" points="1067.9271,-895.1467 1076.6709,-889.1638 1066.1045,-888.3882 1067.9271,-895.1467"/>
</g>
<!-- broadcaster&#45;&gt;sg -->
<g id="edge25" class="edge">
<title>broadcaster-&gt;sg</title>
<path fill="none" stroke="#000000" d="M781.3069,-950.8093C645.3818,-941.4176 304.2365,-908.0769 304.2365,-810 304.2365,-810 304.2365,-810 304.2365,-738 304.2365,-664.5029 261.0957,-586.0987 236.2826,-547.0818"/>
<polygon fill="#000000" stroke="#000000" points="239.08,-544.963 230.6999,-538.4802 233.2083,-548.7739 239.08,-544.963"/>
</g>
<!-- gz&#45;&gt;bd -->
<g id="edge53" class="edge">
<title>gz-&gt;bd</title>
<path fill="none" stroke="#000000" d="M597.5927,-864.0535C595.1093,-839.5852 594.822,-795.4896 596.7307,-766.4799"/>
<polygon fill="#000000" stroke="#000000" points="600.2468,-766.4238 597.5698,-756.1727 593.2699,-765.8557 600.2468,-766.4238"/>
</g>
<!-- kb -->
<g id="node47" class="node">
<title>kb</title>
<ellipse fill="none" stroke="#000000" cx="536.2365" cy="-810" rx="28.9754" ry="18"/>
<text text-anchor="middle" x="536.2365" y="-805.8" font-family="Times,serif" font-size="14.00" fill="#000000">%kb</text>
</g>
<!-- gz&#45;&gt;kb -->
<g id="edge54" class="edge">
<title>gz-&gt;kb</title>
<path fill="none" stroke="#000000" d="M587.9155,-866.3771C579.1293,-856.7921 567.709,-844.3337 557.8393,-833.5667"/>
<polygon fill="#000000" stroke="#000000" points="560.3239,-831.0975 550.9865,-826.091 555.1638,-835.8276 560.3239,-831.0975"/>
</g>
<!-- xg&#45;&gt;pm -->
<g id="edge34" class="edge">
<title>xg-&gt;pm</title>
<path fill="none" stroke="#000000" d="M1101.4388,-863.9843C1101.9071,-815.2939 1114.2765,-680.7961 1123.3999,-622.0573"/>
<polygon fill="#000000" stroke="#000000" points="1126.8831,-622.446 1125.0621,-612.0089 1119.9769,-621.3036 1126.8831,-622.446"/>
</g>
<!-- cf -->
<g id="node36" class="node">
<title>cf</title>
<ellipse fill="none" stroke="#000000" cx="1071.2365" cy="-810" rx="27" ry="18"/>
<text text-anchor="middle" x="1071.2365" y="-805.8" font-family="Times,serif" font-size="14.00" fill="#000000">%cf</text>
</g>
<!-- xg&#45;&gt;cf -->
<g id="edge33" class="edge">
<title>xg-&gt;cf</title>
<path fill="none" stroke="#000000" d="M1095.4902,-864.5708C1091.7561,-856.1691 1087.1961,-845.9091 1083.0419,-836.5623"/>
<polygon fill="#000000" stroke="#000000" points="1086.1712,-834.9853 1078.9114,-827.2687 1079.7745,-837.8283 1086.1712,-834.9853"/>
</g>
<!-- sg&#45;&gt;rs -->
<g id="edge85" class="edge">
<title>sg-&gt;rs</title>
<path fill="none" stroke="#000000" d="M206.1517,-537.9233C194.4802,-548.8843 177.3347,-563.4957 162.6272,-575.0555"/>
<polygon fill="#000000" stroke="#000000" points="160.0984,-572.5852 154.3092,-581.4586 164.3683,-578.1322 160.0984,-572.5852"/>
</g>
<!-- rh -->
<g id="node56" class="node">
<title>rh</title>
<ellipse fill="none" stroke="#000000" cx="180.2365" cy="-450" rx="27.2467" ry="18"/>
<text text-anchor="middle" x="180.2365" y="-445.8" font-family="Times,serif" font-size="14.00" fill="#000000">%rh</text>
</g>
<!-- sg&#45;&gt;rh -->
<g id="edge86" class="edge">
<title>sg-&gt;rh</title>
<path fill="none" stroke="#000000" d="M209.994,-504.937C205.2828,-496.2393 199.4548,-485.4799 194.2086,-475.7948"/>
<polygon fill="#000000" stroke="#000000" points="197.253,-474.0664 189.4126,-466.9405 191.0979,-477.4005 197.253,-474.0664"/>
</g>
<!-- rx -->
<g id="node32" class="node">
<title>rx</title>
<ellipse fill="none" stroke="#000000" cx="894.2365" cy="-378" rx="27" ry="18"/>
<text text-anchor="middle" x="894.2365" y="-373.8" font-family="Times,serif" font-size="14.00" fill="#000000">rx</text>
</g>
<!-- dn&#45;&gt;rx -->
<g id="edge26" class="edge">
<title>dn-&gt;rx</title>
<path fill="none" stroke="#000000" d="M894.2365,-431.8314C894.2365,-424.131 894.2365,-414.9743 894.2365,-406.4166"/>
<polygon fill="#000000" stroke="#000000" points="897.7366,-406.4132 894.2365,-396.4133 890.7366,-406.4133 897.7366,-406.4132"/>
</g>
<!-- br -->
<g id="node33" class="node">
<title>br</title>
<ellipse fill="none" stroke="#000000" cx="509.2365" cy="-594" rx="27.2467" ry="18"/>
<text text-anchor="middle" x="509.2365" y="-589.8" font-family="Times,serif" font-size="14.00" fill="#000000">%br</text>
</g>
<!-- br&#45;&gt;bd -->
<g id="edge28" class="edge">
<title>br-&gt;bd</title>
<path fill="none" stroke="#000000" d="M515.3087,-611.839C522.1834,-630.696 534.5032,-660.854 550.2365,-684 558.0881,-695.5509 568.4945,-706.9066 577.9341,-716.2011"/>
<polygon fill="#000000" stroke="#000000" points="575.5836,-718.7961 585.23,-723.1775 580.4213,-713.7368 575.5836,-718.7961"/>
</g>
<!-- nf -->
<g id="node34" class="node">
<title>nf</title>
<ellipse fill="none" stroke="#000000" cx="527.2365" cy="-522" rx="27.2467" ry="18"/>
<text text-anchor="middle" x="527.2365" y="-517.8" font-family="Times,serif" font-size="14.00" fill="#000000">%nf</text>
</g>
<!-- br&#45;&gt;nf -->
<g id="edge27" class="edge">
<title>br-&gt;nf</title>
<path fill="none" stroke="#000000" d="M513.6859,-576.2022C515.6763,-568.2406 518.0697,-558.6671 520.2875,-549.7957"/>
<polygon fill="#000000" stroke="#000000" points="523.7459,-550.3929 522.7758,-539.8425 516.9549,-548.6951 523.7459,-550.3929"/>
</g>
<!-- nf&#45;&gt;bd -->
<g id="edge70" class="edge">
<title>nf-&gt;bd</title>
<path fill="none" stroke="#000000" d="M533.3537,-539.6175C546.4153,-577.2351 577.111,-665.6386 592.7371,-710.6418"/>
<polygon fill="#000000" stroke="#000000" points="589.5124,-712.0251 596.0989,-720.3238 596.1251,-709.729 589.5124,-712.0251"/>
</g>
<!-- nz -->
<g id="node37" class="node">
<title>nz</title>
<ellipse fill="none" stroke="#000000" cx="527.2365" cy="-450" rx="28.3913" ry="18"/>
<text text-anchor="middle" x="527.2365" y="-445.8" font-family="Times,serif" font-size="14.00" fill="#000000">%nz</text>
</g>
<!-- nf&#45;&gt;nz -->
<g id="edge71" class="edge">
<title>nf-&gt;nz</title>
<path fill="none" stroke="#000000" d="M527.2365,-503.8314C527.2365,-496.131 527.2365,-486.9743 527.2365,-478.4166"/>
<polygon fill="#000000" stroke="#000000" points="530.7366,-478.4132 527.2365,-468.4133 523.7366,-478.4133 530.7366,-478.4132"/>
</g>
<!-- jq&#45;&gt;bd -->
<g id="edge83" class="edge">
<title>jq-&gt;bd</title>
<path fill="none" stroke="#000000" d="M624.7358,-165.5433C563.2773,-175.3996 416.2365,-209.1058 416.2365,-306 416.2365,-594 416.2365,-594 416.2365,-594 416.2365,-669.1605 512.3713,-710.6783 566.4134,-728.0797"/>
<polygon fill="#000000" stroke="#000000" points="565.3936,-731.4278 575.9817,-731.0509 567.4695,-724.7427 565.3936,-731.4278"/>
</g>
<!-- ng -->
<g id="node49" class="node">
<title>ng</title>
<ellipse fill="none" stroke="#000000" cx="771.2365" cy="-90" rx="28.9754" ry="18"/>
<text text-anchor="middle" x="771.2365" y="-85.8" font-family="Times,serif" font-size="14.00" fill="#000000">%ng</text>
</g>
<!-- jq&#45;&gt;ng -->
<g id="edge82" class="edge">
<title>jq-&gt;ng</title>
<path fill="none" stroke="#000000" d="M671.3218,-149.9488C690.5561,-138.4082 719.8061,-120.8582 741.6954,-107.7247"/>
<polygon fill="#000000" stroke="#000000" points="743.5041,-110.7211 750.2783,-102.5749 739.9026,-104.7187 743.5041,-110.7211"/>
</g>
<!-- cf&#45;&gt;pm -->
<g id="edge90" class="edge">
<title>cf-&gt;pm</title>
<path fill="none" stroke="#000000" d="M1075.3555,-791.903C1082.301,-761.8402 1097.0742,-699.7879 1112.2365,-648 1114.7633,-639.3696 1117.7681,-630.0515 1120.5919,-621.6252"/>
<polygon fill="#000000" stroke="#000000" points="1123.9947,-622.4898 1123.9021,-611.8954 1117.3677,-620.2351 1123.9947,-622.4898"/>
</g>
<!-- gj -->
<g id="node53" class="node">
<title>gj</title>
<ellipse fill="none" stroke="#000000" cx="1033.2365" cy="-738" rx="27" ry="18"/>
<text text-anchor="middle" x="1033.2365" y="-733.8" font-family="Times,serif" font-size="14.00" fill="#000000">%gj</text>
</g>
<!-- cf&#45;&gt;gj -->
<g id="edge89" class="edge">
<title>cf-&gt;gj</title>
<path fill="none" stroke="#000000" d="M1062.231,-792.937C1057.7537,-784.4537 1052.2413,-774.0092 1047.2294,-764.513"/>
<polygon fill="#000000" stroke="#000000" points="1050.2043,-762.6509 1042.4413,-755.4407 1044.0136,-765.9182 1050.2043,-762.6509"/>
</g>
<!-- nz&#45;&gt;bd -->
<g id="edge36" class="edge">
<title>nz-&gt;bd</title>
<path fill="none" stroke="#000000" d="M514.315,-466.1613C506.6366,-476.4666 497.2534,-490.3985 491.2365,-504 471.55,-548.5022 458.0549,-565.7667 473.2365,-612 489.5294,-661.6176 539.3641,-700.0727 572.1089,-720.8443"/>
<polygon fill="#000000" stroke="#000000" points="570.4995,-723.9637 580.8494,-726.2287 574.171,-718.0037 570.4995,-723.9637"/>
</g>
<!-- nz&#45;&gt;gm -->
<g id="edge35" class="edge">
<title>nz-&gt;gm</title>
<path fill="none" stroke="#000000" d="M539.4899,-433.6621C546.2969,-424.5861 554.9078,-413.1049 562.5385,-402.9306"/>
<polygon fill="#000000" stroke="#000000" points="565.4568,-404.8729 568.6568,-394.7729 559.8567,-400.6729 565.4568,-404.8729"/>
</g>
<!-- gm&#45;&gt;dj -->
<g id="edge107" class="edge">
<title>gm-&gt;dj</title>
<path fill="none" stroke="#000000" d="M591.4035,-360.5708C596.4077,-351.9922 602.542,-341.4762 608.0854,-331.9732"/>
<polygon fill="#000000" stroke="#000000" points="611.1475,-333.6701 613.1631,-323.2687 605.1011,-330.1429 611.1475,-333.6701"/>
</g>
<!-- dd&#45;&gt;dn -->
<g id="edge37" class="edge">
<title>dd-&gt;dn</title>
<path fill="none" stroke="#000000" d="M757.5018,-511.5306C784.8743,-499.213 830.5039,-478.6796 861.4524,-464.7528"/>
<polygon fill="#000000" stroke="#000000" points="863.2601,-467.7775 870.943,-460.4821 860.3875,-461.394 863.2601,-467.7775"/>
</g>
<!-- nb&#45;&gt;sl -->
<g id="edge38" class="edge">
<title>nb-&gt;sl</title>
<path fill="none" stroke="#000000" d="M139.2926,-360.2022C137.057,-352.1541 134.3639,-342.4588 131.8772,-333.5067"/>
<polygon fill="#000000" stroke="#000000" points="135.2416,-332.541 129.1927,-323.8425 128.4969,-334.4145 135.2416,-332.541"/>
</g>
<!-- sl&#45;&gt;kx -->
<g id="edge68" class="edge">
<title>sl-&gt;kx</title>
<path fill="none" stroke="#000000" d="M124.2365,-287.8314C124.2365,-280.131 124.2365,-270.9743 124.2365,-262.4166"/>
<polygon fill="#000000" stroke="#000000" points="127.7366,-262.4132 124.2365,-252.4133 120.7366,-262.4133 127.7366,-262.4132"/>
</g>
<!-- xp&#45;&gt;dn -->
<g id="edge50" class="edge">
<title>xp-&gt;dn</title>
<path fill="none" stroke="#000000" d="M1010.37,-510.5914C987.4914,-498.6548 951.37,-479.8088 925.4868,-466.3045"/>
<polygon fill="#000000" stroke="#000000" points="926.9425,-463.1163 916.4576,-461.5937 923.7045,-469.3224 926.9425,-463.1163"/>
</g>
<!-- fh&#45;&gt;dn -->
<g id="edge44" class="edge">
<title>fh-&gt;dn</title>
<path fill="none" stroke="#000000" d="M884.1554,-647.9555C886.0683,-610.3938 890.4907,-523.5541 892.7896,-478.4103"/>
<polygon fill="#000000" stroke="#000000" points="896.2992,-478.3102 893.3124,-468.1451 889.3083,-477.9541 896.2992,-478.3102"/>
</g>
<!-- qq&#45;&gt;rs -->
<g id="edge46" class="edge">
<title>qq-&gt;rs</title>
<path fill="none" stroke="#000000" d="M137.1733,-935.9156C142.7385,-908.7281 152.2365,-855.6422 152.2365,-810 152.2365,-810 152.2365,-810 152.2365,-738 152.2365,-697.5637 145.1616,-651.2302 139.8828,-622.2873"/>
<polygon fill="#000000" stroke="#000000" points="143.254,-621.2756 137.9661,-612.0947 136.3745,-622.5693 143.254,-621.2756"/>
</g>
<!-- hd -->
<g id="node45" class="node">
<title>hd</title>
<ellipse fill="none" stroke="#000000" cx="95.2365" cy="-882" rx="28.9754" ry="18"/>
<text text-anchor="middle" x="95.2365" y="-877.8" font-family="Times,serif" font-size="14.00" fill="#000000">%hd</text>
</g>
<!-- qq&#45;&gt;hd -->
<g id="edge47" class="edge">
<title>qq-&gt;hd</title>
<path fill="none" stroke="#000000" d="M124.0377,-936.5708C119.5568,-928.0807 114.0744,-917.6929 109.0998,-908.2674"/>
<polygon fill="#000000" stroke="#000000" points="112.1135,-906.4789 104.3505,-899.2687 105.9228,-909.7462 112.1135,-906.4789"/>
</g>
<!-- hd&#45;&gt;rs -->
<g id="edge49" class="edge">
<title>hd-&gt;rs</title>
<path fill="none" stroke="#000000" d="M97.6761,-863.9843C104.2696,-815.2939 122.4828,-680.7961 130.437,-622.0573"/>
<polygon fill="#000000" stroke="#000000" points="133.9241,-622.3881 131.7978,-612.0089 126.9874,-621.4487 133.9241,-622.3881"/>
</g>
<!-- hd&#45;&gt;qs -->
<g id="edge48" class="edge">
<title>hd-&gt;qs</title>
<path fill="none" stroke="#000000" d="M82.3023,-865.6621C74.9416,-856.3644 65.5827,-844.5426 57.3848,-834.1873"/>
<polygon fill="#000000" stroke="#000000" points="60.0707,-831.9413 51.1195,-826.2733 54.5824,-836.2862 60.0707,-831.9413"/>
</g>
<!-- pj&#45;&gt;cc -->
<g id="edge51" class="edge">
<title>pj-&gt;cc</title>
<path fill="none" stroke="#000000" d="M1591.9874,-683.5546C1584.2325,-701.9169 1571.2781,-731.4316 1558.2365,-756 1553.1897,-765.5073 1547.1727,-775.6464 1541.6672,-784.5412"/>
<polygon fill="#000000" stroke="#000000" points="1538.5324,-782.9518 1536.1771,-793.2816 1544.46,-786.6752 1538.5324,-782.9518"/>
</g>
<!-- pj&#45;&gt;mj -->
<g id="edge52" class="edge">
<title>pj-&gt;mj</title>
<path fill="none" stroke="#000000" d="M1590.5219,-648.5708C1586.2768,-640.0807 1581.0829,-629.6929 1576.3702,-620.2674"/>
<polygon fill="#000000" stroke="#000000" points="1579.4735,-618.6477 1571.8708,-611.2687 1573.2125,-621.7782 1579.4735,-618.6477"/>
</g>
<!-- kb&#45;&gt;bd -->
<g id="edge62" class="edge">
<title>kb-&gt;bd</title>
<path fill="none" stroke="#000000" d="M550.5575,-794.3771C559.4657,-784.659 571.0817,-771.987 581.044,-761.1191"/>
<polygon fill="#000000" stroke="#000000" points="583.7662,-763.3291 587.9434,-753.5924 578.6061,-758.599 583.7662,-763.3291"/>
</g>
<!-- kb&#45;&gt;sv -->
<g id="edge63" class="edge">
<title>kb-&gt;sv</title>
<path fill="none" stroke="#000000" d="M518.7175,-795.6663C487.4856,-770.113 422.0722,-716.5929 385.811,-686.9246"/>
<polygon fill="#000000" stroke="#000000" points="387.6406,-683.8993 377.6846,-680.2758 383.2079,-689.317 387.6406,-683.8993"/>
</g>
<!-- zd -->
<g id="node48" class="node">
<title>zd</title>
<ellipse fill="none" stroke="#000000" cx="994.2365" cy="-666" rx="28.3913" ry="18"/>
<text text-anchor="middle" x="994.2365" y="-661.8" font-family="Times,serif" font-size="14.00" fill="#000000">%zd</text>
</g>
<!-- zd&#45;&gt;pm -->
<g id="edge56" class="edge">
<title>zd-&gt;pm</title>
<path fill="none" stroke="#000000" d="M1016.0872,-654.432C1038.2892,-642.678 1072.9187,-624.3447 1098.2166,-610.9517"/>
<polygon fill="#000000" stroke="#000000" points="1099.8742,-614.0344 1107.0744,-606.2623 1096.5989,-607.8479 1099.8742,-614.0344"/>
</g>
<!-- zd&#45;&gt;jv -->
<g id="edge55" class="edge">
<title>zd-&gt;jv</title>
<path fill="none" stroke="#000000" d="M989.8745,-648.0535C983.9011,-623.4774 973.1151,-579.1008 966.0657,-550.0974"/>
<polygon fill="#000000" stroke="#000000" points="969.4163,-549.0632 963.6534,-540.1727 962.6143,-550.7165 969.4163,-549.0632"/>
</g>
<!-- ng&#45;&gt;bd -->
<g id="edge61" class="edge">
<title>ng-&gt;bd</title>
<path fill="none" stroke="#000000" d="M775.1733,-108.0844C780.7385,-135.2719 790.2365,-188.3578 790.2365,-234 790.2365,-594 790.2365,-594 790.2365,-594 790.2365,-669.6668 693.0679,-710.963 638.4448,-728.1997"/>
<polygon fill="#000000" stroke="#000000" points="637.3224,-724.8827 628.7735,-731.141 639.3593,-731.5798 637.3224,-724.8827"/>
</g>
<!-- jk -->
<g id="node50" class="node">
<title>jk</title>
<ellipse fill="none" stroke="#000000" cx="800.2365" cy="-18" rx="27" ry="18"/>
<text text-anchor="middle" x="800.2365" y="-13.8" font-family="Times,serif" font-size="14.00" fill="#000000">%jk</text>
</g>
<!-- ng&#45;&gt;jk -->
<g id="edge60" class="edge">
<title>ng-&gt;jk</title>
<path fill="none" stroke="#000000" d="M778.405,-72.2022C781.7061,-64.0064 785.6952,-54.1024 789.3556,-45.0145"/>
<polygon fill="#000000" stroke="#000000" points="792.6608,-46.1766 793.1504,-35.593 786.1677,-43.5612 792.6608,-46.1766"/>
</g>
<!-- jk&#45;&gt;bd -->
<g id="edge93" class="edge">
<title>jk-&gt;bd</title>
<path fill="none" stroke="#000000" d="M806.0381,-35.9672C814.2395,-63.0051 828.2365,-115.9025 828.2365,-162 828.2365,-594 828.2365,-594 828.2365,-594 828.2365,-682.141 704.4617,-718.6896 640.1115,-731.7351"/>
<polygon fill="#000000" stroke="#000000" points="639.1022,-728.3654 629.9485,-733.7002 640.4311,-735.2381 639.1022,-728.3654"/>
</g>
<!-- sv&#45;&gt;br -->
<g id="edge69" class="edge">
<title>sv-&gt;br</title>
<path fill="none" stroke="#000000" d="M382.5433,-655.2209C407.9258,-642.9555 449.5524,-622.8406 478.1188,-609.0367"/>
<polygon fill="#000000" stroke="#000000" points="479.7825,-612.1201 487.2635,-604.6178 476.7368,-605.8174 479.7825,-612.1201"/>
</g>
<!-- zx&#45;&gt;rs -->
<g id="edge72" class="edge">
<title>zx-&gt;rs</title>
<path fill="none" stroke="#000000" d="M74.3541,-650.7307C85.077,-640.5721 99.3264,-627.0727 111.2349,-615.791"/>
<polygon fill="#000000" stroke="#000000" points="113.8094,-618.1732 118.6619,-608.7549 108.9952,-613.0915 113.8094,-618.1732"/>
</g>
<!-- gj&#45;&gt;pm -->
<g id="edge67" class="edge">
<title>gj-&gt;pm</title>
<path fill="none" stroke="#000000" d="M1039.0167,-720.3916C1045.7243,-701.4607 1057.9781,-670.9908 1074.2365,-648 1082.6877,-636.0492 1094.0196,-624.5392 1104.2785,-615.2385"/>
<polygon fill="#000000" stroke="#000000" points="1106.6474,-617.8163 1111.849,-608.5863 1102.0267,-612.558 1106.6474,-617.8163"/>
</g>
<!-- gj&#45;&gt;zd -->
<g id="edge66" class="edge">
<title>gj-&gt;zd</title>
<path fill="none" stroke="#000000" d="M1023.994,-720.937C1019.3989,-712.4537 1013.7414,-702.0092 1008.5977,-692.513"/>
<polygon fill="#000000" stroke="#000000" points="1011.5239,-690.5666 1003.6835,-683.4407 1005.3689,-693.9006 1011.5239,-690.5666"/>
</g>
<!-- kx&#45;&gt;jx -->
<g id="edge87" class="edge">
<title>kx-&gt;jx</title>
<path fill="none" stroke="#000000" d="M148.4972,-243.7545C191.1814,-262.7063 275.2365,-308.8105 275.2365,-378 275.2365,-522 275.2365,-522 275.2365,-522 275.2365,-618.0833 266.2365,-641.9167 266.2365,-738 266.2365,-954 266.2365,-954 266.2365,-954 266.2365,-996.0945 250.8678,-1042.8878 239.678,-1071.3788"/>
<polygon fill="#000000" stroke="#000000" points="236.4309,-1070.0726 235.9263,-1080.6554 242.9203,-1072.6971 236.4309,-1070.0726"/>
</g>
<!-- mn&#45;&gt;cc -->
<g id="edge109" class="edge">
<title>mn-&gt;cc</title>
<path fill="none" stroke="#000000" d="M1758.3665,-34.9314C1774.4377,-61.0597 1802.2365,-113.2941 1802.2365,-162 1802.2365,-666 1802.2365,-666 1802.2365,-666 1802.2365,-706.8816 1812.1692,-727.1174 1783.2365,-756 1752.5576,-786.6258 1625.9862,-801.4968 1562.2552,-807.1587"/>
<polygon fill="#000000" stroke="#000000" points="1561.8871,-803.6773 1552.2231,-808.0198 1562.4858,-810.6517 1561.8871,-803.6773"/>
</g>
<!-- rh&#45;&gt;rs -->
<g id="edge76" class="edge">
<title>rh-&gt;rs</title>
<path fill="none" stroke="#000000" d="M174.5498,-467.8017C166.627,-492.6036 152.1984,-537.7713 142.9236,-566.8056"/>
<polygon fill="#000000" stroke="#000000" points="139.586,-565.7519 139.877,-576.3428 146.254,-567.8821 139.586,-565.7519"/>
</g>
<!-- rh&#45;&gt;nb -->
<g id="edge75" class="edge">
<title>rh-&gt;nb</title>
<path fill="none" stroke="#000000" d="M171.5219,-432.5708C167.2768,-424.0807 162.0829,-413.6929 157.3702,-404.2674"/>
<polygon fill="#000000" stroke="#000000" points="160.4735,-402.6477 152.8708,-395.2687 154.2125,-405.7782 160.4735,-402.6477"/>
</g>
<!-- ln&#45;&gt;cc -->
<g id="edge104" class="edge">
<title>ln-&gt;cc</title>
<path fill="none" stroke="#000000" d="M1459.749,-395.3645C1448.9375,-422.0586 1430.2365,-475.022 1430.2365,-522 1430.2365,-666 1430.2365,-666 1430.2365,-666 1430.2365,-716.9202 1472.1372,-763.7184 1500.2841,-789.4108"/>
<polygon fill="#000000" stroke="#000000" points="1498.007,-792.0695 1507.812,-796.0836 1502.6503,-786.8312 1498.007,-792.0695"/>
</g>
<!-- ln&#45;&gt;zr -->
<g id="edge103" class="edge">
<title>ln-&gt;zr</title>
<path fill="none" stroke="#000000" d="M1467.2365,-359.8314C1467.2365,-352.131 1467.2365,-342.9743 1467.2365,-334.4166"/>
<polygon fill="#000000" stroke="#000000" points="1470.7366,-334.4132 1467.2365,-324.4133 1463.7366,-334.4133 1470.7366,-334.4132"/>
</g>
<!-- pc&#45;&gt;pm -->
<g id="edge92" class="edge">
<title>pc-&gt;pm</title>
<path fill="none" stroke="#000000" d="M1146.6075,-396.2933C1146.8414,-414.4933 1146.8453,-443.2069 1145.2365,-468 1143.0521,-501.6618 1138.1142,-540.1343 1134.4983,-565.619"/>
<polygon fill="#000000" stroke="#000000" points="1131.0087,-565.296 1133.0415,-575.694 1137.9367,-566.2978 1131.0087,-565.296"/>
</g>
<!-- pc&#45;&gt;kt -->
<g id="edge91" class="edge">
<title>pc-&gt;kt</title>
<path fill="none" stroke="#000000" d="M1155.4789,-360.937C1160.1902,-352.2393 1166.0182,-341.4799 1171.2643,-331.7948"/>
<polygon fill="#000000" stroke="#000000" points="1174.375,-333.4005 1176.0604,-322.9405 1168.2199,-330.0664 1174.375,-333.4005"/>
</g>
<!-- vf&#45;&gt;pm -->
<g id="edge94" class="edge">
<title>vf-&gt;pm</title>
<path fill="none" stroke="#000000" d="M1285.9263,-35.3446C1297.03,-62.0126 1316.2365,-114.9424 1316.2365,-162 1316.2365,-450 1316.2365,-450 1316.2365,-450 1316.2365,-524.1993 1222.5446,-565.611 1168.1531,-583.4003"/>
<polygon fill="#000000" stroke="#000000" points="1166.9698,-580.1035 1158.4859,-586.4496 1169.0756,-586.7792 1166.9698,-580.1035"/>
</g>
</g>
</svg>